<svg width="76" height="31" viewBox="0 0 76 31" fill="none" xmlns="http://www.w3.org/2000/svg">
<path d="M16.1206 20.4372C17.7005 20.4263 18.9045 20.0613 19.7326 19.3422C20.5607 18.623 20.9747 17.7841 20.9747 16.8252C20.9747 16.7163 20.9148 16.6618 20.7949 16.6618H16.9869C14.666 16.6618 13.5056 17.3537 13.5056 18.7374C13.5056 19.1624 13.7127 19.5492 14.1267 19.8978C14.5407 20.2465 15.2054 20.4263 16.1206 20.4372ZM16.8234 13.3113H19.9614C20.2774 13.3113 20.5225 13.2351 20.6969 13.0825C20.8712 12.93 20.9638 12.7611 20.9747 12.5759C20.9747 10.996 19.8579 10.206 17.6243 10.206C15.3906 10.206 14.2084 10.9415 14.0777 12.4124C14.0777 12.5214 14.0232 12.5759 13.9142 12.5759H10.2532C10.1443 12.5759 10.0898 12.5214 10.0898 12.4124C10.0898 10.5383 10.7926 9.08919 12.1981 8.06499C13.6037 7.04078 15.4179 6.52323 17.6406 6.51233C19.8634 6.52323 21.6448 7.07347 22.985 8.16305C24.3252 9.25263 24.9898 10.8216 24.9789 12.87V19.3748C24.9898 19.7126 25.1042 19.9741 25.3222 20.1593C25.5401 20.3446 25.8288 20.4372 26.1884 20.4372H26.695C26.804 20.4372 26.8585 20.4917 26.8585 20.6006V23.6242C26.8585 23.7332 26.804 23.7876 26.695 23.7876H24.9789C23.5298 23.7876 22.4402 23.2538 21.7102 22.186C21.6121 22.077 21.5086 22.077 21.3997 22.186C20.0922 23.4717 18.3379 24.1145 16.137 24.1145C13.936 24.1145 12.2799 23.6188 11.1685 22.6272C10.0571 21.6357 9.50143 20.3555 9.50143 18.7865C9.50143 17.2175 10.1388 15.91 11.4136 14.864C12.6994 13.818 14.5026 13.3004 16.8234 13.3113Z" fill="black"/>
<path d="M38.0245 19.048C38.7654 18.1218 39.1359 16.8797 39.1359 15.3216C39.1359 13.7635 38.7654 12.5214 38.0245 11.5952C37.2727 10.6691 36.2267 10.206 34.8865 10.206C33.5463 10.206 32.5385 10.6691 31.8629 11.5952C31.1874 12.5214 30.8442 13.7635 30.8333 15.3216C30.8333 18.732 32.1625 20.4372 34.8211 20.4372C36.2049 20.4372 37.2727 19.9741 38.0245 19.048ZM35.4912 6.51233C37.8338 6.52323 39.697 7.33497 41.0808 8.94755C42.4645 10.5601 43.1564 12.6739 43.1564 15.2889C43.1564 17.9039 42.4373 20.0286 40.999 21.663C39.5608 23.2973 37.7249 24.1145 35.4912 24.1145C33.6607 24.1145 32.2116 23.5806 31.1438 22.5128C31.0675 22.4475 30.9967 22.4257 30.9313 22.4475C30.8659 22.4693 30.8333 22.5237 30.8333 22.6109V30.2434C30.8333 30.3524 30.7788 30.4123 30.6698 30.4232H26.9925C26.8835 30.4232 26.829 30.3633 26.829 30.2434V7.01899C26.829 6.91003 26.8835 6.85555 26.9925 6.85555H30.1632C30.3157 6.85555 30.4301 6.91003 30.5064 7.01899L30.8333 8.08133C30.9313 8.23387 31.0566 8.23387 31.2092 8.08133C31.6341 7.65639 32.2497 7.29138 33.056 6.9863C33.8623 6.68122 34.674 6.52323 35.4912 6.51233Z" fill="black"/>
<path d="M58.1312 23.7876H54.4539C54.3449 23.7876 54.2904 23.7332 54.2904 23.6242V14.4881C54.2904 13.3658 53.9799 12.3906 53.3588 11.5625C52.7378 10.7345 51.8116 10.3204 50.5804 10.3204C49.3492 10.3204 48.4285 10.6909 47.8183 11.4318C47.2081 12.1509 46.8976 13.0553 46.8867 14.1449V23.6242C46.8867 23.7332 46.8322 23.7876 46.7233 23.7876H43.0459C42.937 23.7876 42.8825 23.7332 42.8825 23.6242V0.383438C42.8825 0.27448 42.937 0.220001 43.0459 0.220001H46.7233C46.8322 0.220001 46.8867 0.27448 46.8867 0.383438V7.98327C46.8867 8.10312 46.9194 8.17395 46.9848 8.19574C47.0501 8.21753 47.2245 8.08678 47.5078 7.80349C47.7911 7.5202 48.325 7.23691 49.1095 6.95361C49.9049 6.67032 50.6185 6.52323 51.2505 6.51233C53.5713 6.51233 55.331 7.26959 56.5295 8.78411C57.728 10.2986 58.3219 12.1999 58.311 14.4881V23.6242C58.3001 23.7332 58.2401 23.7876 58.1312 23.7876Z" fill="black"/>
<path d="M64.7622 20.4372C66.3421 20.4263 67.546 20.0613 68.3741 19.3422C69.2022 18.623 69.6162 17.7841 69.6162 16.8252C69.6162 16.7163 69.5563 16.6618 69.4365 16.6618H65.6284C63.3076 16.6618 62.1472 17.3537 62.1472 18.7374C62.1472 19.1624 62.3542 19.5492 62.7682 19.8978C63.1823 20.2465 63.8469 20.4263 64.7622 20.4372ZM65.4649 13.3113H68.6029C68.9189 13.3113 69.1641 13.2351 69.3384 13.0825C69.5127 12.93 69.6054 12.7611 69.6162 12.5759C69.6162 10.996 68.4994 10.206 66.2658 10.206C64.0321 10.206 62.8499 10.9415 62.7192 12.4124C62.7192 12.5214 62.6647 12.5759 62.5558 12.5759H58.8948C58.7858 12.5759 58.7313 12.5214 58.7313 12.4124C58.7313 10.5383 59.4341 9.08919 60.8397 8.06499C62.2452 7.04078 64.0594 6.52323 66.2821 6.51233C68.5049 6.52323 70.2863 7.07347 71.6265 8.16305C72.9667 9.25263 73.6314 10.8216 73.6205 12.87V19.3748C73.6314 19.7126 73.7458 19.9741 73.9637 20.1593C74.1816 20.3446 74.4703 20.4372 74.8299 20.4372H75.3365C75.4455 20.4372 75.5 20.4917 75.5 20.6006V23.6242C75.5 23.7332 75.4455 23.7876 75.3365 23.7876H73.6205C72.1713 23.7876 71.0817 23.2538 70.3517 22.186C70.2537 22.077 70.1501 22.077 70.0412 22.186C68.7337 23.4717 66.9795 24.1145 64.7785 24.1145C62.5776 24.1145 60.9214 23.6188 59.81 22.6272C58.6986 21.6357 58.143 20.3555 58.143 18.7865C58.143 17.2175 58.7804 15.91 60.0552 14.864C61.3409 13.818 63.1441 13.3004 65.4649 13.3113Z" fill="black"/>
<path d="M8.19777 10.3694C6.96654 10.3586 6.04585 10.7127 5.43568 11.4318C4.82552 12.1509 4.52043 13.0553 4.52043 14.1448V23.6242C4.52043 23.7332 4.46595 23.7876 4.357 23.7876H0.630628C0.543461 23.7876 0.499878 23.7332 0.499878 23.6242V7.01898C0.499878 6.91003 0.543461 6.85555 0.630628 6.85555H3.85034C4.00288 6.85555 4.11184 6.92092 4.17721 7.05167L4.52043 8.04864C4.6076 8.20118 4.70566 8.22842 4.81462 8.13036C5.88241 7.06257 7.12453 6.52322 8.54099 6.51233H10.3715C10.4804 6.51233 10.5404 6.56681 10.5513 6.67577V10.206C10.5513 10.315 10.4913 10.3694 10.3715 10.3694H8.19777Z" fill="black"/>
</svg>
