<svg width="14" height="19" viewBox="0 0 14 19" fill="none" xmlns="http://www.w3.org/2000/svg">
<path d="M13.0449 9.47626C13.0449 9.21719 12.9412 8.97885 12.7443 8.79232L4.53711 0.750875C4.35057 0.574709 4.12259 0.481445 3.85316 0.481445C3.32467 0.481445 2.91016 0.88559 2.91016 1.42445C2.91016 1.68351 3.01379 1.92186 3.17959 2.09803L10.7236 9.47626L3.17959 16.8545C3.01379 17.0307 2.91016 17.2586 2.91016 17.5281C2.91016 18.067 3.32467 18.471 3.85316 18.471C4.12259 18.471 4.35057 18.3778 4.53711 18.1913L12.7443 10.1602C12.9412 9.96331 13.0449 9.73532 13.0449 9.47626Z" fill="white" fill-opacity="0.85"/>
</svg>
